mtllib ItmThunder.mtl

v -5.915039 -5.915039 0.000000
v 5.915039 -5.915039 0.000000
v 5.915039 5.915039 0.000000
v -5.915039 5.915039 0.000000

vt 1.000000 0.500000
vt 1.000000 1.000000
vt 0.000000 1.000000
vt 0.000000 0.500000

vn 0.000000 0.000000 1.000000
vn 0.000000 0.000000 1.000000
vn 0.000000 0.000000 1.000000
vn 0.000000 0.000000 1.000000

g polygon0
s 1
usemtl ItmThunderLight.bmp
f 1/1/1 2/2/2 3/3/3
f 4/4/4 1/1/1 3/3/3

v -0.622070 1.870361 -0.074707
v -0.010498 2.607910 -0.900635
v -0.005371 0.527100 -3.263428
v -0.846924 0.189697 -0.825928
v 0.000000 -1.382813 -0.860107
v 0.696777 -1.272217 -0.656250
v 0.846924 0.172119 -0.826660
v 0.622070 1.870361 -0.074707
v 0.641846 1.692383 0.338135
v 1.040771 0.042725 -0.218018
v -0.622070 -1.870361 0.074707
v -0.010498 -2.607910 0.900635
v -0.005371 -0.527100 3.263428
v -0.846924 -0.189697 0.825928
v -0.478760 0.966553 1.159180
v -0.696777 1.272217 0.656250
v -1.040771 -0.042725 0.218018
v -0.478760 -0.966553 -1.159180
v -0.696777 -1.272217 -0.656250
v -1.040771 0.042725 -0.218018
v -0.641846 1.692383 0.338135
v 0.000000 1.088379 1.233643
v 0.000000 1.382813 0.860107
v -0.641846 -1.692383 -0.338135
v 0.000000 -1.088379 -1.233643
v 0.622070 -1.870361 0.074707
v 0.846924 -0.172119 0.826660
v 0.483154 -0.966553 -1.159180
v 0.641846 -1.692383 -0.338135
v 1.040771 -0.042725 0.218018
v 0.696777 1.272217 0.656250
v 0.483154 0.966553 1.159180
v 0.000000 4.522217 1.092041
v 0.000000 -4.522217 -1.092041

vt 0.526367 0.763336
vt 0.403168 0.833618
vt 0.044464 0.625366
vt 0.438843 0.562622
vt 0.452789 0.407379
vt 0.482422 0.420593
vt 0.439240 0.560883
vt 0.526764 0.763275
vt 0.579376 0.754272
vt 0.518494 0.551422
vt 0.573059 0.373047
vt 0.708588 0.311615
vt 0.972778 0.519867
vt 0.646332 0.535828
vt 0.685303 0.688141
vt 0.616425 0.724640
vt 0.569916 0.547424
vt 0.409393 0.457123
vt 0.482422 0.420593
vt 0.518402 0.551483
vt 0.579285 0.754425
vt 0.695526 0.702667
vt 0.644379 0.737854
vt 0.518127 0.380554
vt 0.398529 0.442566
vt 0.572632 0.373047
vt 0.645996 0.537567
vt 0.409393 0.457123
vt 0.518005 0.380676
vt 0.569794 0.547485
vt 0.616425 0.724640
vt 0.685303 0.688141
vt 0.719849 0.992157
vt 0.337982 0.007263

vn -0.936635 0.291134 -0.194822
vn -0.005188 0.698161 -0.715922
vn -0.002625 -0.350045 -0.936729
vn -0.948229 0.047057 -0.314082
vn -0.722504 -0.249257 -0.644871
vn 0.965395 -0.007629 -0.260682
vn 0.947404 0.048463 -0.316351
vn 0.934814 0.293457 -0.200012
vn 0.968878 0.189210 -0.159608
vn 0.992562 0.014160 -0.120912
vn -0.936635 -0.291134 0.194822
vn -0.005188 -0.698161 0.715922
vn -0.002625 0.350045 0.936729
vn -0.948229 -0.047057 0.314082
vn -0.673157 0.466125 0.574097
vn -0.643309 0.413390 0.644408
vn -0.992507 -0.014343 0.121340
vn -0.673157 -0.466125 -0.574097
vn -0.686888 -0.307495 -0.658507
vn -0.992507 0.014343 -0.121340
vn -0.924041 0.194403 0.329173
vn -0.000977 0.715721 0.698386
vn -0.535139 0.305227 0.787694
vn -0.918651 -0.206912 -0.336552
vn -0.000977 -0.715721 -0.698386
vn 0.934814 -0.293457 0.200012
vn 0.947404 -0.048463 0.316351
vn 0.672367 -0.466433 -0.574771
vn 0.975459 -0.180114 0.126647
vn 0.992562 -0.014160 0.120912
vn 0.944640 -0.288085 0.157043
vn 0.672367 0.466433 0.574771
vn -0.002930 0.602952 0.797772
vn -0.002930 -0.602952 -0.797772

g polygon1
s 1
usemtl ItmThunder.bmp
f 5/5/5 6/6/6 7/7/7
f 8/8/8 5/5/5 7/7/7
f 9/9/9 10/10/10 10/10/10
f 9/9/9 9/9/9 10/10/10
f 11/11/11 12/12/12 13/13/13
f 14/14/14 11/11/11 13/13/13
f 15/15/15 16/16/16 17/17/17
f 18/18/18 15/15/15 17/17/17
f 19/19/19 20/20/20 21/21/21
f 18/18/18 19/19/19 21/21/21
f 22/22/22 23/23/23 24/24/24
f 8/8/8 22/22/22 24/24/24
f 25/25/25 5/5/5 8/8/8
f 24/24/24 25/25/25 8/8/8
f 25/25/25 24/24/24 21/21/21
f 20/20/20 25/25/25 21/21/21
f 20/20/20 19/19/19 26/26/26
f 27/27/27 20/20/20 26/26/26
f 28/28/28 21/21/21 24/24/24
f 23/23/23 28/28/28 24/24/24
f 20/20/20 20/20/20 27/27/27
f 27/27/27 20/20/20 27/27/27
f 23/23/23 22/22/22 29/29/29
f 9/9/9 23/23/23 29/29/29
f 23/23/23 23/23/23 9/9/9
f 9/9/9 23/23/23 9/9/9
f 28/28/28 15/15/15 18/18/18
f 21/21/21 28/28/28 18/18/18
f 17/17/17 16/16/16 30/30/30
f 31/31/31 17/17/17 30/30/30
f 14/14/14 10/10/10 32/32/32
f 11/11/11 14/14/14 32/32/32
f 31/31/31 30/30/30 33/33/33
f 34/34/34 31/31/31 33/33/33
f 34/34/34 35/35/35 36/36/36
f 31/31/31 34/34/34 36/36/36
f 14/14/14 34/34/34 33/33/33
f 10/10/10 14/14/14 33/33/33
f 7/7/7 6/6/6 12/12/12
f 11/11/11 7/7/7 12/12/12
f 34/34/34 14/14/14 13/13/13
f 35/35/35 34/34/34 13/13/13
f 26/26/26 36/36/36 35/35/35
f 27/27/27 26/26/26 35/35/35
f 29/29/29 32/32/32 10/10/10
f 9/9/9 29/29/29 10/10/10
f 27/27/27 35/35/35 35/35/35
f 27/27/27 27/27/27 35/35/35
f 18/18/18 17/17/17 19/19/19
f 25/25/25 20/20/20 37/37/37
f 27/27/27 37/37/37 20/20/20
f 26/26/26 19/19/19 17/17/17
f 25/25/25 20/20/20 20/20/20
f 5/5/5 25/25/25 37/37/37
f 5/5/5 37/37/37 6/6/6
f 12/12/12 6/6/6 37/37/37
f 31/31/31 36/36/36 17/17/17
f 13/13/13 37/37/37 35/35/35
f 27/27/27 35/35/35 37/37/37
f 26/26/26 17/17/17 36/36/36
f 13/13/13 35/35/35 35/35/35
f 12/12/12 37/37/37 13/13/13
f 29/29/29 22/22/22 7/7/7
f 15/15/15 38/38/38 16/16/16
f 11/11/11 32/32/32 7/7/7
f 33/33/33 38/38/38 10/10/10
f 9/9/9 10/10/10 38/38/38
f 28/28/28 23/23/23 38/38/38
f 29/29/29 7/7/7 32/32/32
f 9/9/9 38/38/38 23/23/23
f 28/28/28 23/23/23 23/23/23
f 8/8/8 7/7/7 22/22/22
f 33/33/33 10/10/10 10/10/10
f 15/15/15 28/28/28 38/38/38
f 30/30/30 38/38/38 33/33/33
f 30/30/30 16/16/16 38/38/38
